<svg xmlns="http://www.w3.org/2000/svg" viewBox="0 0 30.47 37.44"><defs><style>.cls-1{fill:#fff;}</style></defs><title>Asset 1</title><g id="Layer_2" data-name="Layer 2"><g id="レイヤー_3" data-name="レイヤー 3"><path class="cls-1" d="M24.19,0H10.78L10.1.68.68,10.1,0,10.78V31.16a6.28,6.28,0,0,0,6.28,6.28H24.19a6.28,6.28,0,0,0,6.28-6.28V6.28A6.29,6.29,0,0,0,24.19,0Zm3.95,31.16a4,4,0,0,1-3.95,4H6.28a4,4,0,0,1-3.95-4V11.74H8.45a3.29,3.29,0,0,0,3.29-3.29V2.33H24.19a4,4,0,0,1,3.95,4Z"/><path class="cls-1" d="M9.09,18.49H7a.6.6,0,0,0-.64.64v5.4a.72.72,0,0,0,.74.77.71.71,0,0,0,.72-.77V22.89a.05.05,0,0,1,.06-.06H9.09a2.18,2.18,0,1,0,0-4.34ZM9,21.57H7.88a.05.05,0,0,1-.06-.06v-1.7a.05.05,0,0,1,.06-.06H9a.91.91,0,1,1,0,1.82Z"/><path class="cls-1" d="M14.81,18.49h-1.6a.6.6,0,0,0-.64.64v5.48a.59.59,0,0,0,.64.63h1.6c1.44,0,2.33-.46,2.69-1.56a5.53,5.53,0,0,0,.2-1.82,5.46,5.46,0,0,0-.2-1.81C17.14,18.94,16.25,18.49,14.81,18.49Zm1.29,4.69c-.17.53-.66.76-1.33.76h-.68a.05.05,0,0,1-.06-.06v-4a.05.05,0,0,1,.06-.06h.68c.67,0,1.16.23,1.33.76a4.9,4.9,0,0,1,.12,1.31A4.94,4.94,0,0,1,16.1,23.18Z"/><path class="cls-1" d="M22.92,18.49H19.65a.6.6,0,0,0-.64.64v5.4a.73.73,0,1,0,1.46,0V22.6a.05.05,0,0,1,.06-.06h1.91a.63.63,0,1,0,0-1.25H20.53a.05.05,0,0,1-.06-.06V19.81a.05.05,0,0,1,.06-.06h2.39a.63.63,0,1,0,0-1.26Z"/></g></g></svg>